<svg xmlns="http://www.w3.org/2000/svg" xmlns:xlink="http://www.w3.org/1999/xlink" aria-hidden="true" role="img" width="512" height="512" preserveAspectRatio="xMidYMid meet" viewBox="0 0 256 256"><path d="M0,126.134111 C0,91.138322 12.4016683,61.367023 37.2050048,36.8202138 C62.0083414,12.2734046 92.2322746,0 127.876805,0 C163.685595,0 194.073789,12.356333 219.041386,37.068999 C243.680462,61.781665 256,92.1334629 256,128.124393 C256,164.447036 243.598332,194.881762 218.794995,219.428571 C193.827398,243.809524 163.192814,256 126.891242,256 C90.9181906,256 60.7763876,243.560739 36.4658325,218.682216 C12.1552775,194.135407 0,163.286038 0,126.134111 Z M55.7765363,127.598499 C55.7765363,151.924574 62.1987051,171.168832 75.0430428,185.331272 C88.2167225,199.66033 105.589513,206.824859 127.161413,206.824859 C148.897984,206.824859 166.270774,199.743638 179.279783,185.581198 C192.288792,171.418757 198.793296,152.507733 198.793296,128.848127 C198.793296,105.18852 192.288792,86.277496 179.279783,72.1150554 C166.106103,57.7859977 148.733313,50.6214689 127.161413,50.6214689 C105.918855,50.6214689 88.7107355,57.7859977 75.5370558,72.1150554 C62.3633761,86.444113 55.7765363,104.938594 55.7765363,127.598499 Z" fill="#FF0057" fill-rule="nonzero"></path></svg>